<svg id="Layer_1" data-name="Layer 1" xmlns="http://www.w3.org/2000/svg" viewBox="0 0 88.92 89.85"><defs><style>.cls-1,.cls-2{fill:#33b6d9;}.cls-1,.cls-3{fill-rule:evenodd;}.cls-3,.cls-4{fill:#333;}</style></defs><title>logo.mark-only</title><path class="cls-1" d="M270.08,376.77a7.29,7.29,0,1,1-7.29,7.29,7.29,7.29,0,0,1,7.29-7.29" transform="translate(-262.79 -351.66)"/><path class="cls-1" d="M296.53,402a7.29,7.29,0,1,1-8.55,5.77,7.29,7.29,0,0,1,8.55-5.77" transform="translate(-262.79 -351.66)"/><path class="cls-1" d="M320.12,351.66a7.29,7.29,0,1,1-7.29,7.29,7.29,7.29,0,0,1,7.29-7.29" transform="translate(-262.79 -351.66)"/><path class="cls-1" d="M344.41,351.66a7.29,7.29,0,1,1-7.29,7.29,7.29,7.29,0,0,1,7.29-7.29" transform="translate(-262.79 -351.66)"/><path class="cls-1" d="M295.14,426.92a7.29,7.29,0,1,1-7.29,7.29,7.29,7.29,0,0,1,7.29-7.29" transform="translate(-262.79 -351.66)"/><path class="cls-1" d="M320.12,426.92a7.29,7.29,0,1,1-7.29,7.29,7.29,7.29,0,0,1,7.29-7.29" transform="translate(-262.79 -351.66)"/><path class="cls-1" d="M344.41,426.92a7.29,7.29,0,1,1-7.29,7.29,7.29,7.29,0,0,1,7.29-7.29" transform="translate(-262.79 -351.66)"/><rect class="cls-2" x="3.83" width="6.93" height="14.59"/><rect class="cls-2" x="28.89" width="6.93" height="14.59"/><rect class="cls-2" x="28.89" y="25.11" width="6.93" height="14.59"/><rect class="cls-2" x="3.83" y="75.26" width="6.93" height="14.59"/><path class="cls-3" d="M337.12,389.66a13.39,13.39,0,1,1,0,26.79V389.66" transform="translate(-262.79 -351.66)"/><rect class="cls-4" x="53.86" y="25.11" width="6.93" height="39.68"/><rect class="cls-4" x="74.33" y="25.48" width="14.59" height="6.93"/><path class="cls-1" d="M270.08,401.88a7.29,7.29,0,1,1-7.29,7.29,7.29,7.29,0,0,1,7.29-7.29" transform="translate(-262.79 -351.66)"/></svg>